<svg width="32" height="32" viewBox="0 0 32 32" fill="none" xmlns="http://www.w3.org/2000/svg">
<g clip-path="url(#clip0_17252_3266)">
<path d="M30.772 15.6769C30.5329 14.9738 30.1076 14.2966 29.5501 13.7496C29.5501 13.6977 29.5501 13.6453 29.4972 13.5935C30.0283 13.8279 30.5335 14.1924 30.9054 14.6352C30.9054 13.8803 30.6663 13.1248 30.2145 12.5259C29.7627 11.927 29.1518 11.4324 28.4609 11.0938C28.8592 11.1197 29.2581 11.198 29.63 11.354C30.0018 11.5101 30.3473 11.6926 30.6663 11.9011C30.48 11.0678 30.0289 10.3388 29.3644 9.76585C28.727 9.21879 27.9034 8.85428 27.0533 8.77596C27.877 8.6199 28.7535 8.77596 29.4708 9.21879C29.0454 8.46385 28.4345 7.86438 27.6907 7.42214C26.947 7.00522 26.0969 6.77085 25.2198 6.79735H25.1934C26.017 6.6148 26.8671 6.6148 27.6643 6.79735C27.1332 6.3027 26.5216 5.93818 25.8578 5.67731C25.1934 5.44294 24.4761 5.3128 23.7588 5.33871C24.1306 5.02602 24.5824 4.84406 25.0606 4.79165C25.6451 4.71333 26.2297 4.84347 26.7079 5.15616C25.6716 4.08854 24.9014 3.69753 23.5996 3.77585C22.9622 3.85417 22.3776 4.06204 21.8724 4.40064C22.696 3.54147 23.307 2.49976 23.5996 1.35382C23.4668 1.53637 23.0685 2.03102 22.9886 2.13525C22.4575 2.73413 21.7666 3.17696 20.9959 3.41133C20.2257 3.6198 19.8004 3.51556 19.0032 3.72403L18.9503 3.6722C20.2521 2.21357 21.7931 0.963983 23.4932 0C21.5005 0.520563 19.6412 1.48455 18.0468 2.78654C19.1095 1.74483 20.305 0.833253 21.6333 0.13014H21.447C21.3942 0.13014 21.3407 0.156051 21.2608 0.181961C19.4279 0.729023 17.7007 1.6406 16.2397 2.86427C15.3097 3.61921 14.4861 4.50487 13.7688 5.44235C13.7159 5.49417 13.4768 5.44235 13.4498 5.44235C13.2106 5.20798 13.3434 4.55669 13.2635 4.71333C13.0773 5.05193 12.8117 6.43225 12.5726 6.69253C11.6427 7.65592 10.9518 8.25481 9.99539 9.21879C9.80916 9.40134 9.80916 9.68753 9.78272 9.89599L9.62352 10.7552L10.5271 10.0261C10.6598 9.9219 10.8725 9.73994 11.0581 9.60921C11.0317 9.29652 11.1645 9.14047 11.6691 9.06215C11.5892 9.29652 11.5892 9.5568 11.4564 9.68694C11.0047 10.1816 10.4201 10.5461 9.80916 10.7805C9.64996 10.8323 9.49016 10.8847 9.35739 11.0148C8.93205 11.3794 8.53375 11.7439 8.10841 12.1084C7.68307 12.447 7.63021 12.3687 7.49744 11.9782C7.47101 11.9264 7.47101 11.8481 7.49744 11.7957C6.9928 12.447 6.9928 13.905 7.49744 14.1918L7.81644 13.2284C8.21475 13.4628 8.16188 13.3845 7.89634 13.5929C7.79001 13.6972 7.71011 13.8014 7.65724 13.9315C7.63081 14.0876 7.68368 14.2701 7.79001 14.4003C7.94921 14.5045 8.10901 14.5828 8.29465 14.6346C8.45385 14.4003 8.56018 14.1659 8.71998 13.9574C8.87918 13.7231 9.03899 13.5146 9.19819 13.3061C9.35739 13.1236 9.54362 12.9675 9.70282 12.7856L9.75569 12.8374C9.59649 13.02 9.43669 13.2019 9.27749 13.4104C8.85215 14.0352 8.82572 13.8791 9.33035 14.3738C9.35679 14.3997 9.38322 14.4256 9.38322 14.4521C9.25045 14.4521 9.14412 14.4262 9.03778 14.3738C8.82512 14.2177 8.71878 14.3738 8.63948 14.5039C8.53315 14.6341 8.50672 14.8166 8.71938 14.9208C9.17115 15.1552 9.70222 15.207 10.2075 15.1034C10.3667 15.0775 10.5265 15.0251 10.6857 14.9473L10.473 14.7913C9.72926 14.2183 9.88846 13.6712 10.765 13.2808C11.8541 12.7603 13.0496 12.4217 14.2452 12.265C14.7234 12.1867 15.228 12.1349 15.7332 12.0825C15.7332 11.9782 15.6804 11.8999 15.6533 11.8481C15.4671 11.4053 15.1223 11.3794 15.6533 11.3534H16.477C16.477 11.3534 17.938 11.4318 17.938 11.4053V11.3794H17.9909V11.2751C17.9909 11.2492 17.9644 11.2492 17.9644 11.2233C17.6989 10.6762 17.5926 10.0774 17.6454 9.50439C17.6719 9.32184 17.6983 9.11397 17.7253 8.93142C17.7782 8.72296 17.6454 8.72296 17.4862 8.74887C17.2207 8.80069 17.5926 8.59282 17.6454 8.54041V8.46209C17.6719 8.41027 17.6719 8.35786 17.6454 8.30604C17.5127 7.99335 17.4063 7.68124 17.3535 7.34264C17.3006 7.13418 17.3006 6.92572 17.3535 6.74376C17.4063 6.5353 17.5127 6.37925 17.6725 6.2232C17.5926 6.40575 17.5133 6.5618 17.4598 6.77026C17.4069 7.239 17.5397 7.68183 17.8317 8.04634C17.9644 8.2289 18.0444 8.43677 18.0708 8.64523C18.0972 8.85369 18.0708 9.08806 17.9909 9.29652C17.8845 9.60921 17.8845 9.97372 17.9909 10.2864C18.2036 10.1822 18.4427 10.1039 18.6818 10.078C19.8244 10.0261 20.9664 10.3641 21.8964 11.0154C23.1983 12.0312 24.0748 13.5158 24.3673 15.1299C24.4202 15.3643 24.4472 15.5727 24.4472 15.8071V17.3435C25.0582 15.3643 24.9519 13.229 24.1817 11.2757C24.4208 11.7445 24.607 12.2391 24.7662 12.7344C25.218 13.9586 25.3508 15.2606 25.1916 16.5367C25.0324 17.8128 24.5806 19.037 23.8633 20.1306C22.0033 23.0214 19.1077 24.0107 15.7332 24.0107C17.8851 24.8698 20.3032 24.9222 22.508 24.1408C24.0489 23.6202 25.4307 22.7087 26.5198 21.4844C25.9617 23.0208 25.1117 24.427 23.969 25.5988C22.8264 26.7707 21.4452 27.6823 19.9043 28.3071C18.3634 28.906 16.7161 29.1927 15.0688 29.1144C13.4215 29.0361 11.8007 28.6198 10.3132 27.8901H10.3396C8.42681 26.9527 6.80597 25.494 5.69036 23.7233C4.54772 21.9526 3.96318 19.895 3.93675 17.7857C3.91032 15.6764 4.49485 13.6188 5.61046 11.8222C6.72607 10.0255 8.29405 8.56691 10.2069 7.60351C10.3661 6.17138 12.0133 4.42655 14.086 3.48906C11.3231 3.74935 8.71938 4.79106 6.54043 6.48407C4.36208 8.17707 2.74124 10.4166 1.81127 12.9687C0.907726 15.5209 0.748525 18.3074 1.38593 20.9379C2.02333 23.5684 3.40508 25.9899 5.39779 27.8913L5.42422 27.9172C7.31061 29.7404 9.62172 31.0165 12.199 31.6154C14.7762 32.2142 17.4862 32.11 20.01 31.3292C22.5338 30.5218 24.7921 29.0638 26.5457 27.1105C28.2993 25.1572 29.4413 22.7617 29.8931 20.183C29.946 20.0788 29.9994 20.0269 30.1851 20.1047V19.0111L30.265 18.9852L30.6104 19.5058C30.6903 18.8286 30.6633 18.1255 30.5305 17.4483C30.7167 17.6567 30.8225 17.8128 30.9288 17.9429C31.0616 17.188 31.0087 16.4066 30.7696 15.6775L30.772 15.6769Z" fill="#FF4608"/>
</g>
<defs>
<clipPath id="clip0_17252_3266">
<rect width="32" height="32" fill="white"/>
</clipPath>
</defs>
</svg>
