<svg width="98" height="84" viewBox="0 0 98 84" fill="none" xmlns="http://www.w3.org/2000/svg">
<path fill-rule="evenodd" clip-rule="evenodd" d="M42.7655 20.4729C43.5677 20.4729 44.3519 20.7094 45.0189 21.1524C45.6858 21.5955 46.2057 22.2252 46.5127 22.962C46.8196 23.6987 46.9 24.5095 46.7435 25.2916C46.587 26.0738 46.2007 26.7922 45.6335 27.3561C45.0663 27.92 44.3436 28.304 43.5568 28.4596C42.77 28.6152 41.9545 28.5353 41.2134 28.2302C40.4723 27.925 39.8389 27.4082 39.3932 26.7451C38.9476 26.082 38.7097 25.3025 38.7097 24.505C38.7097 23.4356 39.137 22.41 39.8976 21.6539C40.6582 20.8977 41.6899 20.4729 42.7655 20.4729Z" fill="#FF6600"/>
<path fill-rule="evenodd" clip-rule="evenodd" d="M73.5097 35.3687V23.3809C73.322 17.1039 70.6769 11.1478 66.1377 6.78081C61.5985 2.41379 55.5238 -0.0191218 49.2071 0.000113193C42.8904 0.0193482 36.8309 2.48921 32.3186 6.88379C27.8064 11.2784 25.1981 17.2505 25.049 23.5284V30.5553L26.3325 31.2888L33.3877 35.3687V23.5284H33.4183C33.4183 19.3533 35.0866 15.3493 38.0562 12.397C41.0258 9.44483 45.0535 7.78629 49.2532 7.78629C53.4528 7.78629 57.4805 9.44483 60.4501 12.397C63.4197 15.3493 65.0881 19.3533 65.0881 23.5284V49.5093C65.0908 52.8525 66.1396 56.1121 68.0892 58.8363C70.0388 61.5604 72.7925 63.6141 75.9688 64.7127C79.145 65.8113 82.5863 65.9003 85.8157 64.9675C89.0451 64.0347 91.9026 62.1263 93.9921 59.5067C96.0817 56.8871 97.2997 53.6861 97.4774 50.3475C97.655 47.0089 96.7836 43.6981 94.9838 40.8739C93.184 38.0497 90.545 35.8521 87.4326 34.5858C84.3203 33.3194 80.8887 33.0469 77.6136 33.8062V42.6603C79.1217 41.855 80.8539 41.5636 82.5446 41.8309C84.2352 42.0982 85.791 42.9094 86.9734 44.1401C88.1559 45.3708 88.8996 46.9531 89.0906 48.6443C89.2816 50.3356 88.9093 52.0424 88.0309 53.5032C87.1524 54.9639 85.8163 56.0979 84.2274 56.7312C82.6384 57.3646 80.8844 57.4623 79.2342 57.0095C77.584 56.5567 76.1287 55.5782 75.0916 54.2243C74.0544 52.8703 73.4926 51.2155 73.4923 49.5136L73.5097 35.3687Z" fill="#FF6600"/>
<path fill-rule="evenodd" clip-rule="evenodd" d="M36.3696 51.6403L36.6272 51.7879L45.0358 47.274C44.2718 46.84 43.5034 46.406 42.7437 45.9719C36.4962 42.3391 27.6117 35.9155 21.3511 34.0579C18.2599 33.1433 14.9646 33.1655 11.8861 34.1215C8.80752 35.0776 6.0855 36.9241 4.0676 39.4254C2.0497 41.9266 0.82751 44.9691 0.557122 48.1641C0.286734 51.3592 0.980418 54.5619 2.54958 57.3632C4.11874 60.1645 6.49217 62.4372 9.36674 63.8911C12.2413 65.3451 15.4866 65.9143 18.6881 65.526C21.8896 65.1377 24.902 63.8096 27.3407 61.7112C29.7793 59.6129 31.5335 56.8395 32.3792 53.7454L24.7609 49.5179C24.7591 51.2438 24.1947 52.9226 23.1522 54.3026C22.1098 55.6827 20.6455 56.6896 18.9788 57.1726C17.3122 57.6556 15.533 57.5885 13.9079 56.9814C12.2828 56.3743 10.8995 55.26 9.9652 53.8054C9.03092 52.3508 8.59604 50.6343 8.72577 48.9133C8.85549 47.1923 9.54283 45.5594 10.6847 44.2595C11.8267 42.9596 13.3616 42.0626 15.0595 41.7031C16.7575 41.3436 18.5269 41.5409 20.1025 42.2654C25.6864 44.8478 31.0651 48.5848 36.3696 51.6403Z" fill="#FF6600"/>
<path fill-rule="evenodd" clip-rule="evenodd" d="M55.7757 20.4729C56.5775 20.472 57.3616 20.7075 58.0289 21.1494C58.6961 21.5914 59.2167 22.22 59.5247 22.956C59.8327 23.6919 59.9144 24.5021 59.7595 25.2842C59.6045 26.0663 59.2199 26.7851 58.6542 27.35C58.0884 27.9148 57.367 28.3003 56.581 28.4577C55.7949 28.6151 54.9796 28.5374 54.2381 28.2343C53.4965 27.9313 52.8619 27.4165 52.4144 26.755C51.967 26.0936 51.7268 25.3151 51.7242 24.518C51.7225 23.9878 51.826 23.4624 52.0288 22.972C52.2316 22.4816 52.5297 22.0357 52.906 21.66C53.2823 21.2843 53.7295 20.986 54.2219 20.7823C54.7144 20.5786 55.2424 20.4734 55.7757 20.4729Z" fill="#FF6600"/>
<path fill-rule="evenodd" clip-rule="evenodd" d="M60.7615 52.0223L61.0235 51.8747C61.1137 48.7121 61.2039 45.5466 61.2942 42.3782C60.5301 42.8122 59.7748 43.2463 59.0064 43.6803C52.7196 47.2437 42.6782 51.6837 37.9282 56.1542C35.5848 58.3577 33.9553 61.2057 33.2479 64.3343C32.5405 67.4629 32.7872 70.7301 33.9566 73.7187C35.126 76.7072 37.1649 79.2814 39.813 81.1123C42.461 82.9433 45.598 83.948 48.8232 83.998C52.0484 84.0481 55.2153 83.1412 57.9196 81.3933C60.6238 79.6453 62.7426 77.1357 64.0052 74.1849C65.2678 71.2341 65.617 67.9761 65.0081 64.8271C64.3992 61.678 62.86 58.7809 60.5869 56.5058L53.0995 60.9762C54.6003 61.8412 55.7787 63.1663 56.4582 64.7531C57.1377 66.3399 57.2816 68.1029 56.8684 69.7778C56.4553 71.4528 55.5072 72.9495 54.1664 74.0438C52.8256 75.138 51.1641 75.7708 49.4311 75.8474C47.698 75.9239 45.9867 75.44 44.5536 74.4683C43.1204 73.4966 42.0426 72.0893 41.4817 70.4574C40.9207 68.8254 40.9069 67.0567 41.4421 65.4163C41.9774 63.7758 43.033 62.352 44.4508 61.3582C49.5064 57.8209 55.4483 55.0605 60.7615 52.0223Z" fill="#FF6600"/>
</svg>
