<svg xmlns="http://www.w3.org/2000/svg" viewBox="0 0 32 32" width="32" height="32">
  <rect width="32" height="32" fill="#000000"/>
  <g transform="translate(-13.7403 7.8217) scale(0.361670)">
    <path d="M60.1147 36.4937H94.3209C96.7397 36.4937 98.7084 34.45 98.7084 31.9375V31.525C98.7084 29.0187 96.7334 26.9687 94.3209 26.9687H68.4584C62.3459 26.9687 57.3459 21.775 57.3459 15.4375V11.5375C57.3459 5.19373 62.3459 0.00622559 68.4584 0.00622559H104.346C105.208 0.00622559 105.908 0.731226 105.908 1.62498V7.11248C105.908 8.00623 105.208 8.73123 104.346 8.73123H70.1397C67.7209 8.73123 65.7522 10.7812 65.7522 13.2875V13.7C65.7522 16.2062 67.7272 18.2562 70.1397 18.2562H96.0022C102.115 18.2562 107.115 23.45 107.115 29.7875V33.6875C107.115 40.0312 102.115 45.2187 96.0022 45.2187H60.1147C59.2584 45.2187 58.5522 44.4937 58.5522 43.6V38.1125C58.5522 37.2187 59.2522 36.4937 60.1147 36.4937Z" fill="#FFFFFF"/>
  </g>
</svg>
