<svg xmlns="http://www.w3.org/2000/svg" version="1.1" xmlns:xlink="http://www.w3.org/1999/xlink" xmlns:svgjs="http://svgjs.dev/svgjs" width="2000" height="525" viewBox="0 0 2000 525"><g transform="matrix(1,0,0,1,-1.2121212121212466,-0.5310503018794179)"><svg viewBox="0 0 396 104" data-background-color="#ffffff" preserveAspectRatio="xMidYMid meet" height="525" width="2000" xmlns="http://www.w3.org/2000/svg" xmlns:xlink="http://www.w3.org/1999/xlink"><g id="tight-bounds" transform="matrix(1,0,0,1,0.2400000000000091,0.10519853599134876)"><svg viewBox="0 0 395.52 103.78960292801732" height="103.78960292801732" width="395.52"><g><svg viewBox="0 0 395.52 103.78960292801732" height="103.78960292801732" width="395.52"><g><svg viewBox="0 0 584.2770650867732 153.32191693290736" height="103.78960292801732" width="395.52"><g transform="matrix(1,0,0,1,188.7570650867732,0)"><svg viewBox="0 0 395.52 153.32191693290736" height="153.32191693290736" width="395.52"><g id="textblocktransform"><svg viewBox="0 0 395.52 153.32191693290736" height="153.32191693290736" width="395.52" id="textblock"><g><svg viewBox="0 0 395.52 153.32191693290736" height="153.32191693290736" width="395.52"><g transform="matrix(1,0,0,1,0,0)"><svg width="395.52" viewBox="3.61 -35.55 91.7 35.55" height="153.32191693290736" data-palette-color="#441999"><path d="M31.81-35.55L31.81 0 25.63 0 9.79-25.22 9.79 0 3.61 0 3.61-35.55 9.79-35.55 25.68-10.23 25.68-35.55 31.81-35.55ZM64.08-35.55L64.08-30.57 53-30.57 53 0 46.87 0 46.87-30.57 35.89-30.57 35.89-35.55 64.08-35.55ZM82.27-13.21L74.92-13.21 74.92 0 68.75 0 68.75-35.55 82.34-35.55Q88.3-35.55 91.8-32.45 95.31-29.35 95.31-24.24L95.31-24.24Q95.31-19.02 91.88-16.11 88.45-13.21 82.27-13.21L82.27-13.21ZM74.92-30.57L74.92-18.16 82.34-18.16Q85.64-18.16 87.37-19.71 89.11-21.26 89.11-24.19L89.11-24.19Q89.11-27.08 87.35-28.8 85.59-30.52 82.51-30.57L82.51-30.57 74.92-30.57Z" opacity="1" transform="matrix(1,0,0,1,0,0)" fill="#ffffff" class="wordmark-text-0" data-fill-palette-color="primary" id="text-0"></path></svg></g></svg></g></svg></g></svg></g><g transform="matrix(1,0,0,1,0,0.3802383539936045)"><svg viewBox="0 0 152.56144022492015 152.56144022492015" height="152.56144022492015" width="152.56144022492015"><g><svg xmlns="http://www.w3.org/2000/svg" xmlns:xlink="http://www.w3.org/1999/xlink" version="1.1" x="0" y="0" viewBox="2 2 60 60" style="enable-background:new 0 0 64 64;" xml:space="preserve" height="152.56144022492015" width="152.56144022492015" class="icon-icon-0" data-fill-palette-color="accent" id="icon-0"><rect x="2" y="2" width="2" height="2" fill="#ffffff" data-fill-palette-color="accent"></rect><rect x="6" y="2" width="2" height="2" fill="#ffffff" data-fill-palette-color="accent"></rect><rect x="8" y="10" width="2" height="2" fill="#ffffff" data-fill-palette-color="accent"></rect><rect x="12" y="10" width="2" height="2" fill="#ffffff" data-fill-palette-color="accent"></rect><rect x="10" y="6" width="3" height="2" fill="#ffffff" data-fill-palette-color="accent"></rect><rect x="10" y="2" width="5" height="2" fill="#ffffff" data-fill-palette-color="accent"></rect><rect x="2" y="6" width="6" height="2" fill="#ffffff" data-fill-palette-color="accent"></rect><rect x="2" y="10" width="4" height="2" fill="#ffffff" data-fill-palette-color="accent"></rect><rect x="9" y="28" width="2" height="2" fill="#ffffff" data-fill-palette-color="accent"></rect><rect x="7" y="20" width="2" height="2" fill="#ffffff" data-fill-palette-color="accent"></rect><rect x="3" y="20" width="2" height="2" fill="#ffffff" data-fill-palette-color="accent"></rect><rect x="4" y="24" width="3" height="2" fill="#ffffff" data-fill-palette-color="accent"></rect><rect x="2" y="28" width="5" height="2" fill="#ffffff" data-fill-palette-color="accent"></rect><rect x="9" y="24" width="3" height="2" fill="#ffffff" data-fill-palette-color="accent"></rect><rect x="11" y="20" width="3" height="2" fill="#ffffff" data-fill-palette-color="accent"></rect><rect x="49" y="2" width="2" height="2" fill="#ffffff" data-fill-palette-color="accent"></rect><rect x="53" y="2" width="2" height="2" fill="#ffffff" data-fill-palette-color="accent"></rect><rect x="56" y="10" width="2" height="2" fill="#ffffff" data-fill-palette-color="accent"></rect><rect x="60" y="10" width="2" height="2" fill="#ffffff" data-fill-palette-color="accent"></rect><rect x="57" y="6" width="3" height="2" fill="#ffffff" data-fill-palette-color="accent"></rect><rect x="57" y="2" width="5" height="2" fill="#ffffff" data-fill-palette-color="accent"></rect><rect x="49" y="6" width="6" height="2" fill="#ffffff" data-fill-palette-color="accent"></rect><rect x="51" y="10" width="3" height="2" fill="#ffffff" data-fill-palette-color="accent"></rect><rect x="60" y="28" width="2" height="2" fill="#ffffff" data-fill-palette-color="accent"></rect><rect x="55" y="20" width="2" height="2" fill="#ffffff" data-fill-palette-color="accent"></rect><rect x="51" y="20" width="2" height="2" fill="#ffffff" data-fill-palette-color="accent"></rect><rect x="52" y="24" width="3" height="2" fill="#ffffff" data-fill-palette-color="accent"></rect><rect x="53" y="28" width="5" height="2" fill="#ffffff" data-fill-palette-color="accent"></rect><rect x="57" y="24" width="3" height="2" fill="#ffffff" data-fill-palette-color="accent"></rect><rect x="59" y="20" width="3" height="2" fill="#ffffff" data-fill-palette-color="accent"></rect><rect x="2" y="39" width="2" height="2" fill="#ffffff" data-fill-palette-color="accent"></rect><rect x="6" y="39" width="2" height="2" fill="#ffffff" data-fill-palette-color="accent"></rect><rect x="8" y="47" width="2" height="2" fill="#ffffff" data-fill-palette-color="accent"></rect><rect x="15" y="43" width="2" height="2" fill="#ffffff" data-fill-palette-color="accent"></rect><rect x="10" y="43" width="3" height="2" fill="#ffffff" data-fill-palette-color="accent"></rect><rect x="10" y="39" width="5" height="2" fill="#ffffff" data-fill-palette-color="accent"></rect><rect x="2" y="43" width="6" height="2" fill="#ffffff" data-fill-palette-color="accent"></rect><rect x="2" y="47" width="4" height="2" fill="#ffffff" data-fill-palette-color="accent"></rect><path d="M61 41H51c-0.277 0-0.527 0.113-0.708 0.294l-5.997 5.997c-0.174 0.173-0.279 0.412-0.288 0.675L40 46.328v-4.914l5.707-5.707C45.895 35.52 46 35.266 46 35v-3.051c2.244-0.252 4-2.139 4-4.449 0-1.914-1.207-3.542-2.895-4.191l0.602-0.602C47.895 22.52 48 22.266 48 22v-7c0-4.963-4.037-9-9-9h-0.08C37.5 3.551 34.851 2 32 2h-7c-0.553 0-1 0.447-1 1 0 1.042 0.2 2.06 0.588 3.01C19.816 6.226 16 10.176 16 15v7c0 0.266 0.105 0.52 0.293 0.707l0.602 0.602C15.207 23.958 14 25.586 14 27.5c0 2.31 1.756 4.197 4 4.449V35c0 0.266 0.105 0.52 0.293 0.707L24 41.414v4.914L2.621 55.074C2.245 55.229 2 55.594 2 56v5c0 0.553 0.447 1 1 1h42 16c0.553 0 1-0.447 1-1V42C62 41.447 61.553 41 61 41zM48 27.5c0 1.207-0.86 2.218-2 2.45v-4.9C47.14 25.282 48 26.293 48 27.5zM18 29.95c-1.14-0.232-2-1.243-2-2.45s0.86-2.218 2-2.45V29.95zM18 21.586V15c0-3.859 3.141-7 7-7h1.26c0.373 0 0.714-0.207 0.887-0.537 0.172-0.331 0.146-0.729-0.066-1.035C26.567 5.693 26.23 4.868 26.084 4H32c2.298 0 4.424 1.346 5.414 3.43C37.58 7.778 37.932 8 38.317 8H39c3.859 0 7 3.141 7 7v6.586l-1 1-1-1V15c0-0.281-0.118-0.549-0.325-0.738-0.208-0.189-0.486-0.285-0.766-0.258L32 14.996l-10.909-0.992c-0.278-0.026-0.557 0.068-0.766 0.258C20.118 14.451 20 14.719 20 15v6.586l-1 1L18 21.586zM20 34.586V31v-6.586l1.707-1.707C21.895 22.52 22 22.266 22 22v-5.905l9.909 0.901c0.061 0.006 0.121 0.006 0.182 0L42 16.095V22c0 0.266 0.105 0.52 0.293 0.707L44 24.414V31v3.586L35.586 43h-7.172L20 34.586zM38 43.414v3.071l-6 4.286-6-4.286v-3.071l1.293 1.293C27.48 44.895 27.734 45 28 45h8c0.266 0 0.52-0.105 0.707-0.293L38 43.414zM44 60H4v-3.329l20.868-8.536 6.551 4.679C31.593 52.938 31.796 53 32 53s0.407-0.062 0.581-0.187l6.551-4.679L44 50.126V60zM50 44.414V47h-2.586L50 44.414zM60 60H46V49.454 49h5c0.553 0 1-0.447 1-1v-5h8V60z" fill="#ffffff" data-fill-palette-color="accent"></path><rect x="48" y="51" width="2" height="2" fill="#ffffff" data-fill-palette-color="accent"></rect><rect x="52" y="51" width="2" height="2" fill="#ffffff" data-fill-palette-color="accent"></rect><rect x="56" y="51" width="2" height="2" fill="#ffffff" data-fill-palette-color="accent"></rect><rect x="48" y="55" width="4" height="2" fill="#ffffff" data-fill-palette-color="accent"></rect><rect x="54" y="55" width="4" height="2" fill="#ffffff" data-fill-palette-color="accent"></rect><rect x="54" y="47" width="4" height="2" fill="#ffffff" data-fill-palette-color="accent"></rect><rect x="31" y="55" width="2" height="2" fill="#ffffff" data-fill-palette-color="accent"></rect><path d="M25.414 27l2.293-2.293-1.414-1.414-3 3c-0.391 0.391-0.391 1.023 0 1.414l3 3 1.414-1.414L25.414 27z" fill="#ffffff" data-fill-palette-color="accent"></path><path d="M37.707 30.707l3-3c0.391-0.391 0.391-1.023 0-1.414l-3-3-1.414 1.414L38.586 27l-2.293 2.293L37.707 30.707z" fill="#ffffff" data-fill-palette-color="accent"></path><rect x="27.528" y="26" transform="matrix(0.4472 -0.8944 0.8944 0.4472 -6.4604 43.5469)" width="8.944" height="2" fill="#ffffff" data-fill-palette-color="accent"></rect><rect x="31" y="34" width="2" height="2" fill="#ffffff" data-fill-palette-color="accent"></rect><rect x="35" y="34" width="2" height="2" fill="#ffffff" data-fill-palette-color="accent"></rect><rect x="27" y="34" width="2" height="2" fill="#ffffff" data-fill-palette-color="accent"></rect></svg></g></svg></g></svg></g></svg></g><defs></defs></svg><rect width="395.52" height="103.78960292801732" fill="none" stroke="none" visibility="hidden"></rect></g></svg></g></svg>